<?xml version="1.0" standalone="no"?>
<!DOCTYPE svg PUBLIC "-//W3C//DTD SVG 20010904//EN"
 "http://www.w3.org/TR/2001/REC-SVG-20010904/DTD/svg10.dtd">
<svg version="1.0" xmlns="http://www.w3.org/2000/svg"
 width="50.000000pt" height="50.000000pt" viewBox="0 0 1080.000000 1080.000000"
 preserveAspectRatio="xMidYMid meet">

<g transform="translate(0.000000,1080.000000) scale(0.100000,-0.100000)"
fill="#000000" stroke="none">
<path d="M4004 7796 c-22 -10 -35 -25 -43 -48 -23 -74 -89 -346 -96 -398 -4
-30 -14 -84 -21 -119 -42 -184 -44 -932 -3 -1151 5 -30 17 -95 25 -145 46
-279 145 -606 251 -825 82 -171 88 -184 210 -401 29 -53 107 -162 128 -179 10
-8 39 -46 65 -85 46 -67 216 -249 311 -331 164 -142 436 -314 495 -314 34 0
105 31 149 64 16 12 62 38 100 57 132 67 400 268 575 434 307 288 585 702 744
1102 67 171 95 270 171 618 15 66 33 149 42 185 24 104 36 399 29 739 -5 269
-10 335 -31 465 -14 83 -30 178 -35 211 -7 43 -16 66 -34 81 -24 21 -25 21
-1087 28 -585 4 -1093 11 -1129 16 -36 6 -227 10 -425 9 -282 0 -367 -3 -391
-13z m1291 -420 c62 -26 134 -29 212 -8 106 29 108 26 107 -135 -1 -98 -6
-145 -23 -203 -25 -87 -27 -143 -6 -160 23 -19 288 -8 338 14 20 9 63 19 95
22 75 8 88 -5 77 -79 -11 -76 -9 -164 5 -232 11 -51 11 -66 -1 -90 l-14 -30
-120 3 c-66 2 -156 10 -200 18 -136 25 -164 28 -180 14 -12 -10 -15 -40 -15
-151 0 -121 2 -139 18 -148 10 -6 107 -8 252 -4 185 4 249 9 303 23 38 11 75
16 83 13 23 -9 27 -47 10 -97 -23 -66 -20 -149 6 -223 17 -47 20 -68 13 -89
-17 -46 -36 -51 -112 -27 -89 28 -532 55 -558 33 -13 -10 -15 -45 -15 -221 0
-226 -6 -265 -43 -256 -12 3 -44 11 -70 18 -42 11 -55 10 -101 -5 -28 -10 -63
-16 -76 -14 -34 4 -39 40 -39 269 -1 156 -4 189 -16 199 -13 10 -66 12 -248 7
-191 -5 -242 -10 -286 -26 -61 -21 -89 -18 -96 13 -2 11 -6 101 -8 200 -4 161
-3 180 13 196 16 16 23 17 74 5 37 -9 144 -14 302 -16 205 -2 247 0 255 12 5
8 9 74 9 146 0 131 0 133 -25 149 -33 22 -160 13 -253 -16 -66 -21 -176 -27
-201 -11 -11 7 -15 43 -16 168 -1 87 -5 169 -9 183 -17 62 41 78 161 45 32 -9
115 -19 188 -22 113 -5 132 -3 144 11 19 23 9 292 -13 360 -9 27 -16 69 -16
93 0 36 4 45 23 53 30 12 33 12 72 -4z"/>
<path d="M2366 7190 c-103 -28 -140 -68 -233 -260 -101 -208 -109 -225 -209
-450 -47 -107 -135 -303 -195 -435 -126 -279 -126 -279 -84 -487 14 -68 36
-177 49 -243 41 -197 85 -426 146 -750 100 -528 148 -676 288 -880 201 -293
393 -493 908 -941 169 -148 337 -320 465 -474 91 -111 113 -140 228 -298 34
-46 70 -82 99 -99 41 -24 55 -27 142 -26 80 1 107 5 165 28 143 57 256 124
445 264 106 78 407 378 477 474 86 120 133 219 133 281 0 28 -6 62 -13 75 -11
24 -73 77 -151 131 -131 90 -229 174 -361 305 -241 240 -397 457 -412 577 -8
59 -100 250 -156 324 -93 122 -309 302 -397 329 -14 4 -45 18 -70 31 -25 13
-54 24 -66 24 -12 0 -42 11 -69 25 -26 14 -67 28 -91 32 -41 5 -54 16 -207
177 -90 94 -200 212 -244 261 -79 89 -108 116 -187 176 -37 27 -44 29 -137 29
-108 0 -149 10 -149 37 0 10 22 51 48 91 26 40 63 97 82 128 19 31 71 112 115
180 44 68 103 160 130 205 28 45 65 104 83 131 19 28 49 82 68 121 31 64 34
80 34 158 0 75 -4 93 -30 146 -30 61 -96 129 -161 168 -38 23 -47 46 -48 134
-1 53 -7 74 -35 125 -55 98 -121 149 -229 177 -87 22 -85 22 -171 -1z m155
-114 c88 -31 149 -113 149 -201 0 -33 -27 -133 -40 -150 -4 -5 -24 -53 -45
-105 -21 -52 -50 -122 -65 -155 -15 -33 -51 -118 -80 -190 -29 -71 -69 -168
-90 -215 -132 -299 -143 -330 -137 -399 3 -37 17 -104 32 -151 81 -258 78
-246 69 -307 -12 -81 -10 -191 4 -238 6 -22 39 -74 73 -115 191 -236 248 -303
384 -460 83 -95 212 -245 288 -334 207 -240 213 -246 247 -246 21 0 35 8 46
25 23 35 6 73 -68 153 -32 35 -77 87 -99 115 -43 55 -115 137 -213 246 -32 36
-105 122 -161 191 -57 69 -120 143 -140 165 -79 86 -226 276 -241 312 -36 84
10 187 101 230 59 27 79 28 149 8 59 -17 111 -68 415 -400 179 -196 232 -236
341 -256 30 -6 77 -21 104 -35 28 -13 56 -24 63 -24 28 0 140 -66 211 -123 84
-68 192 -190 228 -257 13 -25 33 -61 44 -80 11 -19 20 -43 20 -53 0 -10 9 -36
21 -58 11 -23 24 -65 29 -95 10 -61 42 -110 201 -309 102 -128 186 -222 284
-315 70 -68 266 -221 346 -272 43 -28 60 -45 69 -73 11 -34 9 -41 -27 -111
-84 -165 -405 -486 -638 -640 -145 -95 -232 -140 -333 -170 -100 -29 -116 -30
-167 -3 -46 24 -56 36 -127 139 -71 103 -273 345 -388 464 -52 54 -183 176
-290 270 -354 311 -583 529 -663 633 -12 15 -45 56 -74 91 -99 117 -232 339
-248 414 -4 18 -16 49 -26 69 -10 20 -23 66 -29 102 -5 35 -17 81 -25 101 -8
20 -20 71 -26 113 -5 43 -18 110 -29 148 -10 39 -21 95 -25 125 -3 30 -15 89
-25 130 -10 41 -26 111 -34 155 -8 44 -22 116 -31 160 -8 44 -25 130 -36 190
-12 61 -34 174 -50 253 -41 202 -40 219 27 371 30 69 72 162 94 206 21 44 57
123 80 175 23 52 64 142 92 200 27 58 60 128 73 155 12 28 34 75 48 105 14 30
43 95 64 143 21 48 51 104 66 123 55 67 130 88 208 60z m334 -477 c55 -51 69
-91 63 -183 -4 -65 -9 -79 -53 -146 -80 -125 -110 -172 -164 -253 -28 -42 -51
-80 -51 -82 0 -3 -17 -31 -38 -63 -21 -31 -63 -97 -93 -145 -30 -49 -68 -105
-86 -125 -26 -31 -34 -35 -50 -26 -29 17 -48 89 -35 138 14 56 152 393 223
542 10 23 19 45 19 50 0 5 11 31 24 59 50 103 86 188 86 200 0 8 12 27 26 44
37 44 73 42 129 -10z"/>
<path d="M8313 6976 c-45 -15 -121 -66 -166 -114 -29 -31 -77 -169 -77 -223 0
-28 -53 -79 -115 -112 -41 -21 -88 -73 -116 -127 -18 -35 -24 -66 -27 -141 -5
-112 4 -136 115 -337 35 -62 63 -115 63 -119 0 -3 38 -74 85 -158 47 -84 85
-156 85 -160 0 -4 11 -20 25 -37 14 -16 25 -38 25 -47 0 -10 9 -30 21 -45 33
-42 72 -147 59 -160 -6 -6 -60 -11 -138 -11 l-128 0 -55 -35 c-30 -19 -135
-111 -234 -206 -150 -142 -255 -237 -367 -331 -9 -8 -49 -19 -89 -25 -41 -5
-92 -18 -114 -28 -22 -10 -56 -21 -75 -24 -32 -6 -108 -38 -167 -69 -152 -80
-304 -218 -386 -349 -43 -70 -95 -185 -127 -282 -42 -129 -464 -539 -725 -702
-44 -28 -110 -70 -147 -94 -101 -63 -128 -98 -128 -164 0 -36 6 -61 18 -77 11
-13 24 -37 29 -54 53 -150 339 -499 568 -692 155 -131 211 -169 325 -223 103
-49 174 -70 241 -70 119 0 175 33 273 163 141 188 381 424 600 592 197 151
376 291 470 367 49 40 117 95 150 121 106 84 287 268 393 399 92 115 213 307
213 338 0 7 9 27 19 44 11 17 25 54 32 81 6 28 20 64 30 81 11 17 19 40 19 51
0 10 7 43 16 73 36 127 76 270 93 335 10 39 25 95 34 125 8 30 46 170 82 310
64 243 81 308 140 515 35 124 33 162 -16 291 -66 178 -160 434 -184 504 -29
83 -73 199 -85 225 -9 20 -37 97 -67 185 -8 25 -26 68 -39 95 -13 28 -24 57
-24 64 0 29 -63 148 -98 185 -57 60 -122 86 -212 85 -41 0 -94 -6 -117 -13z
m190 -120 c45 -19 74 -54 98 -117 12 -30 32 -83 46 -119 14 -36 36 -92 48
-125 13 -33 31 -82 41 -110 9 -27 27 -72 39 -100 12 -27 26 -66 30 -85 4 -19
14 -44 21 -56 8 -11 21 -45 30 -74 9 -29 22 -63 29 -74 7 -12 19 -41 25 -66 6
-25 18 -55 25 -66 8 -12 20 -45 29 -75 8 -30 29 -90 46 -134 59 -150 61 -181
21 -308 -10 -34 -31 -109 -46 -167 -14 -58 -37 -141 -50 -185 -14 -44 -27 -98
-31 -120 -4 -21 -15 -57 -25 -80 -9 -22 -21 -62 -24 -90 -4 -27 -14 -63 -22
-78 -8 -16 -20 -61 -28 -100 -8 -40 -23 -92 -34 -117 -11 -25 -21 -58 -21 -75
0 -16 -12 -61 -25 -100 -14 -38 -25 -79 -25 -90 -1 -11 -8 -38 -16 -60 -9 -22
-24 -69 -34 -105 -97 -350 -326 -640 -800 -1015 -70 -55 -156 -121 -191 -147
-101 -74 -232 -174 -260 -200 -14 -13 -42 -36 -64 -53 -148 -115 -379 -343
-530 -524 -98 -117 -134 -150 -171 -157 -99 -18 -228 33 -399 159 -135 99
-199 152 -278 231 -89 88 -270 305 -297 356 -7 14 -32 54 -56 90 -47 71 -62
129 -45 172 11 30 35 48 186 140 55 34 123 80 150 102 28 23 75 60 106 84 96
73 258 232 371 365 112 133 151 195 167 269 18 78 110 231 186 309 104 107
161 152 250 197 106 54 172 79 242 92 135 23 211 54 276 111 76 66 277 252
406 376 106 102 182 148 243 147 56 -2 140 -60 167 -116 26 -55 28 -81 11
-142 -14 -52 -77 -119 -772 -817 -141 -142 -240 -249 -244 -265 -10 -41 10
-74 47 -74 42 0 108 62 617 580 445 452 464 476 482 584 5 30 4 80 -1 121 -10
68 -9 74 27 170 20 55 47 129 59 165 13 36 30 82 39 102 30 70 31 67 -113 483
-29 83 -76 222 -106 310 -30 88 -73 212 -95 275 -55 152 -65 204 -51 256 13
50 84 126 131 141 50 16 125 15 163 -1z m-388 -418 c17 -8 28 -24 35 -52 6
-23 22 -66 35 -97 14 -31 25 -65 25 -75 0 -11 8 -35 19 -54 10 -19 22 -51 26
-70 4 -19 18 -62 30 -95 104 -271 177 -511 169 -548 -16 -79 -53 -108 -86 -69
-18 20 -75 119 -143 247 -53 99 -77 143 -124 225 -17 30 -38 69 -46 87 -8 17
-26 48 -40 69 -14 20 -25 43 -25 50 0 7 -11 29 -23 48 -101 148 9 398 148 334z"/>
</g>
</svg>
